<svg width="40" height="34" viewBox="0 0 40 34" fill="none" xmlns="http://www.w3.org/2000/svg">
<path d="M19.25 34C17.45 34 16.025 33.5333 14.975 32.6C13.925 31.6667 13.4 30.25 13.4 28.35H16.8C16.8 29.2167 16.9917 29.875 17.375 30.325C17.7583 30.775 18.3833 31 19.25 31C20.15 31 20.7917 30.8 21.175 30.4C21.5583 30 21.75 29.3167 21.75 28.35C21.75 27.3833 21.5583 26.675 21.175 26.225C20.7917 25.775 20.15 25.55 19.25 25.55H0V22.55H19.25C21.05 22.55 22.4167 23.0167 23.35 23.95C24.2833 24.8833 24.75 26.35 24.75 28.35C24.75 30.25 24.2833 31.6667 23.35 32.6C22.4167 33.5333 21.05 34 19.25 34ZM0 13.6V10.6H27.4C28.6333 10.6 29.5333 10.3083 30.1 9.725C30.6667 9.14167 30.95 8.16667 30.95 6.8C30.95 5.43333 30.6667 4.45833 30.1 3.875C29.5333 3.29167 28.6333 3 27.4 3C26.1333 3 25.2167 3.34167 24.65 4.025C24.0833 4.70833 23.8 5.56667 23.8 6.6H20.8C20.8 4.66667 21.3833 3.08333 22.55 1.85C23.7167 0.616667 25.3333 0 27.4 0C29.4333 0 31.0333 0.591667 32.2 1.775C33.3667 2.95833 33.95 4.63333 33.95 6.8C33.95 8.96667 33.3667 10.6417 32.2 11.825C31.0333 13.0083 29.4333 13.6 27.4 13.6H0ZM33.6 30.1V27.1C34.7667 27.1 35.625 26.775 36.175 26.125C36.725 25.475 37 24.5333 37 23.3C37 22.0333 36.6917 21.1167 36.075 20.55C35.4583 19.9833 34.5667 19.7 33.4 19.7H0V16.7H33.4C35.4667 16.7 37.0833 17.2833 38.25 18.45C39.4167 19.6167 40 21.2333 40 23.3C40 25.4333 39.45 27.1 38.35 28.3C37.25 29.5 35.6667 30.1 33.6 30.1Z" fill="#C2F1FF"/>
</svg>
