<svg width="40" height="22" viewBox="0 0 40 22" fill="none" xmlns="http://www.w3.org/2000/svg">
<path d="M0 21.3V18.3C1.26667 18.3 2.29167 17.9167 3.075 17.15C3.85833 16.3833 5 16 6.5 16C8 16 9.16667 16.45 10 17.35C10.8333 18.25 11.9 18.7 13.2 18.7C14.5 18.7 15.5833 18.25 16.45 17.35C17.3167 16.45 18.5 16 20 16C21.5 16 22.675 16.45 23.525 17.35C24.375 18.25 25.45 18.7 26.75 18.7C28.05 18.7 29.125 18.25 29.975 17.35C30.825 16.45 32 16 33.5 16C35 16 36.1417 16.3833 36.925 17.15C37.7083 17.9167 38.7333 18.3 40 18.3V21.3C38.4333 21.3 37.275 20.9167 36.525 20.15C35.775 19.3833 34.7667 19 33.5 19C32.2333 19 31.1667 19.45 30.3 20.35C29.4333 21.25 28.25 21.7 26.75 21.7C25.25 21.7 24.0667 21.25 23.2 20.35C22.3333 19.45 21.2667 19 20 19C18.7333 19 17.6583 19.45 16.775 20.35C15.8917 21.25 14.7 21.7 13.2 21.7C11.7 21.7 10.525 21.25 9.675 20.35C8.825 19.45 7.76667 19 6.5 19C5.23333 19 4.225 19.3833 3.475 20.15C2.725 20.9167 1.56667 21.3 0 21.3ZM0 13.3V10.3C1.26667 10.3 2.29167 9.91667 3.075 9.15C3.85833 8.38333 5 8 6.5 8C8 8 9.16667 8.45 10 9.35C10.8333 10.25 11.9 10.7 13.2 10.7C14.5 10.7 15.5833 10.25 16.45 9.35C17.3167 8.45 18.5 8 20 8C21.5 8 22.675 8.45 23.525 9.35C24.375 10.25 25.45 10.7 26.75 10.7C28.05 10.7 29.125 10.25 29.975 9.35C30.825 8.45 32 8 33.5 8C35 8 36.1417 8.38333 36.925 9.15C37.7083 9.91667 38.7333 10.3 40 10.3V13.3C38.4333 13.3 37.275 12.9167 36.525 12.15C35.775 11.3833 34.7667 11 33.5 11C32.2333 11 31.1667 11.45 30.3 12.35C29.4333 13.25 28.25 13.7 26.75 13.7C25.25 13.7 24.0667 13.25 23.2 12.35C22.3333 11.45 21.2667 11 20 11C18.7333 11 17.6583 11.45 16.775 12.35C15.8917 13.25 14.7 13.7 13.2 13.7C11.7 13.7 10.525 13.25 9.675 12.35C8.825 11.45 7.76667 11 6.5 11C5.23333 11 4.225 11.3833 3.475 12.15C2.725 12.9167 1.56667 13.3 0 13.3ZM0 5.3V2.3C1.26667 2.3 2.29167 1.91667 3.075 1.15C3.85833 0.383334 5 0 6.5 0C8 0 9.16667 0.45 10 1.35C10.8333 2.25 11.9 2.7 13.2 2.7C14.5 2.7 15.5833 2.25 16.45 1.35C17.3167 0.45 18.5 0 20 0C21.5 0 22.675 0.45 23.525 1.35C24.375 2.25 25.45 2.7 26.75 2.7C28.05 2.7 29.125 2.25 29.975 1.35C30.825 0.45 32 0 33.5 0C35 0 36.1417 0.383334 36.925 1.15C37.7083 1.91667 38.7333 2.3 40 2.3V5.3C38.4333 5.3 37.275 4.91667 36.525 4.15C35.775 3.38333 34.7667 3 33.5 3C32.2333 3 31.1667 3.45 30.3 4.35C29.4333 5.25 28.25 5.7 26.75 5.7C25.25 5.7 24.0667 5.25 23.2 4.35C22.3333 3.45 21.2667 3 20 3C18.7333 3 17.6583 3.45 16.775 4.35C15.8917 5.25 14.7 5.7 13.2 5.7C11.7 5.7 10.525 5.25 9.675 4.35C8.825 3.45 7.76667 3 6.5 3C5.23333 3 4.225 3.38333 3.475 4.15C2.725 4.91667 1.56667 5.3 0 5.3Z" fill="#C2F1FF"/>
</svg>
